Coordinates
version=1
nRows=10
nColumns=63
inDegrees=yes

Units are S.I. units (second, meters, Newtons, ...)
If the header above contains a line with 'inDegrees', this indicates whether rotational values are in degrees (yes) or radians (no).

endheader
time	pelvis_tilt	pelvis_list	pelvis_rotation	pelvis_tx	pelvis_ty	pelvis_tz	hip_flexion_r	hip_adduction_r	hip_rotation_r	knee_angle_r	knee_angle_r_beta	ankle_angle_r	subtalar_angle_r	mtp_angle_r	hip_flexion_l	hip_adduction_l	hip_rotation_l	knee_angle_l	knee_angle_l_beta	ankle_angle_l	subtalar_angle_l	mtp_angle_l	L5_S1_Flex_Ext	L5_S1_Lat_Bending	L5_S1_axial_rotation	L4_L5_Flex_Ext	L4_L5_Lat_Bending	L4_L5_axial_rotation	L3_L4_Flex_Ext	L3_L4_Lat_Bending	L3_L4_axial_rotation	L2_L3_Flex_Ext	L2_L3_Lat_Bending	L2_L3_axial_rotation	L1_L2_Flex_Ext	L1_L2_Lat_Bending	L1_L2_axial_rotation	L1_T12_Flex_Ext	L1_T12_Lat_Bending	L1_T12_axial_rotation	Abs_r3	Abs_r2	Abs_r1	Abs_t1	Abs_t2	neck_flexion	neck_bending	neck_rotation	arm_flex_r	arm_add_r	arm_rot_r	elbow_flex_r	pro_sup_r	wrist_flex_r	wrist_dev_r	arm_flex_l	arm_add_l	arm_rot_l	elbow_flex_l	pro_sup_l	wrist_flex_l	wrist_dev_l
      6.66666667	     -1.28842681	    -12.94526323	    106.26195422	      0.05487774	      1.02484221	      0.30735556	     10.31259421	     -3.66835260	     -8.29142372	     24.13844296	      0.42129531	     25.70465267	    -11.95894779	      0.00000000	      4.85982430	      1.28974865	      6.63702546	      5.49761924	      0.09595156	     24.67888564	      2.95349549	      0.00000000	     -0.15224165	     -0.21490440	     -0.18235730	     -0.28272796	     -0.28582285	     -0.19375463	     -0.25011780	     -0.52251856	     -0.19375463	     -0.17399698	     -0.52251856	     -0.15956264	     -0.14137159	     -0.43823305	     -0.14816531	     -0.08699088	     -0.33288691	     -0.13676798	     -1.08744685	     -2.43104155	     -1.01421661	      0.00000000	      0.00000000	      6.90017159	    -12.11026617	      6.86795912	    -21.32709807	    -17.33803175	    -34.05427025	    118.18019633	     46.77154030	     -0.30944399	     -0.73257060	     -6.77366823	      6.06801686	    -47.14224684	    120.19082517	     68.05854682	     28.36477798	     -4.05484434
      6.68333333	     -1.18244883	    -13.09660167	    106.13571486	      0.05446366	      1.02484275	      0.30719691	     10.50012368	     -3.59007589	     -8.03664712	     24.20013234	      0.42237199	     25.20695407	    -12.45960557	      0.00000000	      4.98892323	      1.30245359	      7.68005173	      5.47219598	      0.09550784	     24.42186282	      1.26039487	      0.00000000	     -0.14521864	     -0.17878730	     -0.05974866	     -0.26968553	     -0.23778711	     -0.06348295	     -0.23857970	     -0.43470345	     -0.06348295	     -0.16597038	     -0.43470345	     -0.05228007	     -0.13485002	     -0.36458307	     -0.04854578	     -0.08297793	     -0.27694153	     -0.04481149	     -1.03728219	     -2.02247773	     -0.33230410	      0.00000000	      0.00000000	      7.81103843	    -13.03811973	      6.68303468	    -21.75716153	    -17.36744071	    -35.24088882	    117.96648170	     46.38972246	      1.79336219	     -1.35504635	     -6.61695725	      6.33416984	    -47.87078283	    120.14556068	     69.80304176	     30.22374450	     -2.59535023
      6.70000000	     -1.18089336	    -13.24499516	    106.02599770	      0.05425668	      1.02493926	      0.30700937	     10.62689522	     -3.64615604	     -8.02159240	     24.21913524	      0.42270365	     24.75802243	    -12.64711156	      0.00000000	      5.11631601	      1.35913159	      7.80020942	      5.37140668	      0.09374873	     24.38731867	      0.95895856	      0.00000000	     -0.14524379	     -0.15545850	      0.01797188	     -0.26973224	     -0.20675980	      0.01909512	     -0.23862102	     -0.37798180	      0.01909512	     -0.16599913	     -0.37798180	      0.01572539	     -0.13487338	     -0.31701097	      0.01460215	     -0.08299230	     -0.24080522	      0.01347891	     -1.03746187	     -1.75857764	      0.09995419	      0.00000000	      0.00000000	      8.86647499	    -13.57389311	      7.05522373	    -22.08825575	    -17.36879690	    -35.94116147	    117.96819833	     46.57034549	      2.05935519	     -1.77816573	     -6.78334252	      6.22339523	    -48.14892345	    120.12704561	     70.59439512	     29.98714471	     -1.49530920
      6.71666667	     -1.26139777	    -13.28891316	    105.63230219	      0.05460582	      1.02519123	      0.30679772	     10.64996971	     -3.63712615	     -7.53215018	     24.16000074	      0.42167156	     24.22987810	    -13.17682379	      0.00000000	      5.04664887	      1.41267150	      7.39414929	      5.06658953	      0.08842867	     24.49449693	      1.07639244	      0.00000000	     -0.14888669	     -0.15378810	      0.10887100	     -0.27649748	     -0.20453817	      0.11567544	     -0.24460595	     -0.37392038	      0.11567544	     -0.17016260	     -0.37392038	      0.09526213	     -0.13825618	     -0.31360469	      0.08845769	     -0.08507386	     -0.23821776	      0.08165325	     -1.06348276	     -1.73968172	      0.60550785	      0.00000000	      0.00000000	      9.35640549	    -13.42403648	      7.03533213	    -22.08539903	    -17.40957120	    -36.27956045	    117.41998294	     47.27633294	      2.63783705	     -1.83743014	     -6.72950326	      6.14810178	    -48.88603645	    120.46540043	     71.89294231	     29.24984128	      1.51035563
      6.73333333	     -1.42882872	    -13.49428271	    105.18515739	      0.05547916	      1.02510695	      0.30683314	     10.94710963	     -3.71457098	     -6.84077774	     24.29522131	      0.42403160	     23.79227226	    -13.87160269	      0.00000000	      5.22479755	      1.56758726	      6.79554202	      4.91451039	      0.08577439	     24.85618414	      1.41889283	      0.00000000	     -0.12653072	     -0.18423575	      0.15033708	     -0.23498020	     -0.24503355	      0.15973315	     -0.20787732	     -0.44795080	      0.15973315	     -0.14461196	     -0.44795080	      0.13154495	     -0.11749643	     -0.37569354	      0.12214888	     -0.07229965	     -0.28538117	      0.11275281	     -0.90379629	     -2.08411163	      0.83612974	      0.00000000	      0.00000000	      9.88972696	    -12.57970810	      6.93422567	    -21.67532517	    -17.40573812	    -36.15348460	    116.65692850	     48.30078673	      2.76546856	     -0.77354514	     -6.51582659	      5.82079217	    -49.94104943	    120.77765650	     73.71543847	     29.20853017	      3.93139674
      6.75000000	     -1.47505774	    -13.61700683	    105.04747570	      0.05584917	      1.02513537	      0.30711653	     11.05861071	     -3.78686176	     -6.93196709	     24.22921639	      0.42287960	     23.62769330	    -13.81933949	      0.00000000	      5.34029671	      1.62692431	      6.87219082	      4.70389246	      0.08209841	     25.18950034	      1.36423218	      0.00000000	     -0.10402373	     -0.19132373	      0.17966823	     -0.19318246	     -0.25446057	      0.19089750	     -0.17090058	     -0.46518453	      0.19089750	     -0.11888872	     -0.46518453	      0.15720970	     -0.09659643	     -0.39014736	      0.14598044	     -0.05943916	     -0.29636046	      0.13475118	     -0.74303107	     -2.16429234	      0.99926081	      0.00000000	      0.00000000	     10.13498794	    -12.27257671	      6.78351347	    -21.27296932	    -17.66078686	    -35.87501801	    115.74857637	     48.38035501	      2.54448128	     -0.27304105	     -5.94483710	      5.27576835	    -49.98380361	    120.03774320	     73.90529386	     29.11174448	      4.05529257
      6.76666667	     -1.99690953	    -13.65428011	    104.39328827	      0.05769302	      1.02523751	      0.30737940	     11.24132798	     -4.15197398	     -6.27212958	     24.52367929	      0.42801895	     23.65227076	    -13.95898301	      0.00000000	      5.17140848	      2.05273904	      6.92963570	      4.39785845	      0.07675711	     25.01109125	      0.71405119	      0.00000000	     -0.11700053	     -0.27868600	      0.16472338	     -0.21728168	     -0.37065238	      0.17501859	     -0.19222017	     -0.67759715	      0.17501859	     -0.13371990	     -0.67759715	      0.14413296	     -0.10864669	     -0.56829650	      0.13383775	     -0.06685410	     -0.43168462	      0.12354254	     -0.83572307	     -3.15255180	      0.91614203	      0.00000000	      0.00000000	     10.30060449	    -10.26105443	      6.33517621	    -19.59442585	    -17.55837576	    -35.49610074	    114.93108852	     49.04126688	      0.22694643	      5.46128764	     -5.06755383	      4.27017872	    -50.86234532	    119.21458418	     77.02264094	     29.56375782	      1.02018953
      6.78333333	     -1.96127261	    -13.90462620	    104.32824471	      0.05816186	      1.02497014	      0.30766780	     11.49678164	     -4.13508684	     -6.26403924	     24.39782370	      0.42582235	     23.78101001	    -13.96748232	      0.00000000	      5.40473695	      2.06165331	      7.02608539	      4.18695017	      0.07307607	     25.24389166	      0.74301348	      0.00000000	     -0.07355792	     -0.27941468	      0.17947785	     -0.13660441	     -0.37162152	      0.19069522	     -0.12084831	     -0.67936885	      0.19069522	     -0.08406935	     -0.67936885	      0.15704312	     -0.06830588	     -0.56978241	      0.14582575	     -0.04203100	     -0.43281334	      0.13460839	     -0.52541687	     -3.16079472	      0.99820196	      0.00000000	      0.00000000	     10.56947379	     -9.95878003	      6.16955013	    -18.74233252	    -18.13919210	    -35.42815983	    113.56359068	     49.02723605	     -0.16151888	      5.85902997	     -3.95139054	      3.51255620	    -50.80586759	    117.97324691	     77.12856800	     29.29100371	      1.04456801
      6.80000000	     -2.41259903	    -13.99848788	    103.74476021	      0.06061754	      1.02530467	      0.30921955	     11.97608906	     -4.42573614	     -5.59358016	     24.89548022	      0.43450810	     23.74180828	    -14.19273185	      0.00000000	      5.51775092	      2.38896026	      6.61273295	      4.15069892	      0.07244336	     24.88418930	      0.95590707	      0.00000000	     -0.11376839	     -0.35584997	      0.08727738	     -0.21127928	     -0.47328047	      0.09273222	     -0.18691009	     -0.86521363	      0.09273222	     -0.13002589	     -0.86521363	      0.07636771	     -0.10564533	     -0.72564927	      0.07091287	     -0.06500726	     -0.55121161	      0.06545804	     -0.81263623	     -4.02544608	      0.48541062	      0.00000000	      0.00000000	     10.78644567	     -7.65995692	      6.05915819	    -16.26780283	    -18.44047189	    -34.84395574	    112.79618166	     49.02962115	     -3.95195678	     10.37014904	     -3.02198205	      1.77392609	    -50.60495122	    116.13426435	     77.90815998	     27.25291626	     -6.26892723
      6.81666667	     -2.34339001	    -14.14565081	    103.54403872	      0.06190273	      1.02558206	      0.31033382	     12.28288103	     -4.29876764	     -5.44561296	     24.84106177	      0.43355832	     23.61013079	    -14.23953940	      0.00000000	      5.77624014	      2.28731273	      6.48603048	      4.12883410	      0.07206175	     24.76390334	      1.16995281	      0.00000000	     -0.11887581	     -0.34929106	      0.06363671	     -0.22076427	     -0.46455711	      0.06761400	     -0.19530107	     -0.84926628	      0.06761400	     -0.13586316	     -0.84926628	      0.05568212	     -0.11038808	     -0.71227432	      0.05170483	     -0.06792564	     -0.54105185	      0.04772753	     -0.84911802	     -3.95125030	      0.35392829	      0.00000000	      0.00000000	     11.00680374	     -6.71784288	      5.70009245	    -14.90982850	    -18.83119091	    -35.50196475	    112.16011942	     49.79063483	     -4.38006301	     10.31986707	     -2.22272424	      0.20762560	    -49.78967939	    114.66495642	     79.16888922	     23.77598016	    -11.07324485
